<?xml version="1.0" standalone="no"?>
<!DOCTYPE svg PUBLIC "-//W3C//DTD SVG 20010904//EN"
 "http://www.w3.org/TR/2001/REC-SVG-20010904/DTD/svg10.dtd">
<svg version="1.0" xmlns="http://www.w3.org/2000/svg"
 width="64.000000pt" height="64.000000pt" viewBox="0 0 64.000000 64.000000"
 preserveAspectRatio="xMidYMid meet">

<g transform="translate(0.000000,64.000000) scale(0.100000,-0.100000)"
fill="#000000" stroke="none">
<path d="M400 551 c0 -51 20 -71 73 -71 l41 0 -54 55 c-30 30 -56 55 -57 55
-2 0 -3 -18 -3 -39z"/>
<path d="M190 346 c0 -18 6 -26 22 -28 36 -5 34 -28 -4 -29 -32 0 -32 -1 -10
-12 17 -7 29 -8 40 0 29 18 25 40 -9 52 -34 12 -31 25 6 34 13 3 9 5 -12 6
-29 1 -33 -2 -33 -23z"/>
<path d="M292 358 c-13 -13 -16 -47 -4 -64 7 -10 69 -44 81 -44 3 0 0 5 -7 12
-8 8 -8 15 -1 24 6 7 9 28 7 46 -3 29 -7 33 -33 36 -17 2 -36 -3 -43 -10z m58
-13 c18 -22 3 -57 -23 -53 -22 3 -33 28 -23 54 7 18 30 18 46 -1z"/>
<path d="M402 323 c3 -42 6 -48 27 -51 13 -2 28 1 34 7 8 8 3 11 -16 11 -25 0
-27 3 -27 40 0 22 -5 40 -11 40 -6 0 -9 -19 -7 -47z"/>
</g>
</svg>
